<?xml version="1.0" encoding="utf-8"?>
<!-- Generator: Adobe Illustrator 19.0.0, SVG Export Plug-In . SVG Version: 6.00 Build 0)  -->
<!DOCTYPE svg PUBLIC "-//W3C//DTD SVG 1.1//EN" "http://www.w3.org/Graphics/SVG/1.1/DTD/svg11.dtd">
<svg version="1.1" xmlns="http://www.w3.org/2000/svg" xmlns:xlink="http://www.w3.org/1999/xlink" x="0px" y="0px"
	 viewBox="0 0 297.2 621" enable-background="new 0 0 297.2 621" xml:space="preserve">
<g id="Background" display="none">
</g>
<g id="Objects">
	<g>
		<g>
			<g>
				<g>
					<g>
						<path fill="#FFFFFF" d="M208,9H54.6c-10.4,0-18.8,8.4-18.8,18.8v154.3v39.5v24.5v47.2v72.9c0,10.4,8.4,18.8,18.8,18.8h0.3
							h38.6H208c10.4,0,18.8-8.4,18.8-18.8V27.8C226.8,17.4,218.4,9,208,9z"/>
						<g>
							<g>
								<circle opacity="0.4" fill="#A8C5BD" cx="130.5" cy="359.3" r="16.5"/>
							</g>
							<circle opacity="0.4" fill="#6A696E" cx="130.5" cy="359.3" r="10.4"/>
						</g>
						<g>
							<path fill="#4C5557" d="M152.8,41c0,1.1-0.9,2-2,2h-41c-1.1,0-2-0.9-2-2l0,0c0-1.1,0.9-2,2-2h41
								C151.9,39,152.8,39.9,152.8,41L152.8,41z"/>
							<circle fill="#4C5557" cx="130.5" cy="28.2" r="5.7"/>
							<circle fill="#4C5557" cx="99.2" cy="41.2" r="2.6"/>
						</g>
						<g>
							<g>
								<rect x="48.8" y="57" fill="#4C5557" width="164" height="277"/>
								<rect x="48.8" y="277" fill="#427782" width="164" height="57"/>
								<rect x="48.8" y="57" fill="#427782" width="164" height="15"/>
							</g>
							<g>
								<g>
									<path fill="#E94150" d="M196.8,318.2c0,3.2-2.6,5.8-5.8,5.8h-24.4c-3.2,0-5.8-2.6-5.8-5.8v-24.4c0-3.2,2.6-5.8,5.8-5.8H191
										c3.2,0,5.8,2.6,5.8,5.8V318.2z"/>
									<path fill="#FFFFFF" d="M187.3,295.2l-14.5,0.1v12.6c-1-0.3-1.9,0-3.1,1c-1.9,1.5-2,4.1-0.8,5.7c1.3,1.6,4.1,1.7,6,0.2
										c1.5-1.2,1.9-3.2,1.9-4.8l0.3-13.9h7.7v12c-2-0.4-2.5-0.1-3.8,0.9c-1.9,1.5-2.3,4.1-1.1,5.7c1.3,1.6,3.9,1.7,5.9,0.2
										c1.1-0.9,1.3-2.1,1.4-3.2L187.3,295.2z"/>
								</g>
								<g>
									<path fill="#1BB687" d="M147.8,317.2c0,3.2-2.6,5.8-5.8,5.8h-24.4c-3.2,0-5.8-2.6-5.8-5.8v-24.4c0-3.2,2.6-5.8,5.8-5.8H142
										c3.2,0,5.8,2.6,5.8,5.8V317.2z"/>
									<g>
										<path fill="#FFFFFF" d="M132.6,302.2c0,0,0,1.8-1.6,3.8c-1.6,2-3.4,2.5-3.4,2.5l-2.3-1.6l-2.9,3.9c0,0,5.1,4.7,10.7-2.2
											c6.6-8,1.1-12.4,1.1-12.4l-3.2,4.5L132.6,302.2z"/>
										<circle fill="none" stroke="#FFFFFF" stroke-width="1.5787" stroke-miterlimit="10" cx="130.1" cy="304.4" r="12.6"/>
									</g>
								</g>
								<g>
									<path fill="#3DBDC4" d="M98.8,316.3c0,3.1-2.6,5.7-5.7,5.7H69.5c-3.1,0-5.7-2.6-5.7-5.7v-23.6c0-3.1,2.6-5.7,5.7-5.7h23.6
										c3.1,0,5.7,2.6,5.7,5.7V316.3z"/>
									<g>
										<defs>
											<path id="XMLID_3_" d="M92.8,314.1c0,0.5-0.4,0.9-0.9,0.9H69.8c-0.5,0-0.9-0.4-0.9-0.9v-18.1c0-0.5,0.4-0.9,0.9-0.9h22.1
												c0.5,0,0.9,0.4,0.9,0.9V314.1z"/>
										</defs>
										<use xlink:href="#XMLID_3_"  overflow="visible" fill="#FFFFFF"/>
										<clipPath id="XMLID_2_">
											<use xlink:href="#XMLID_3_"  overflow="visible"/>
										</clipPath>
										
											<path clip-path="url(#XMLID_2_)" fill="#FFFFFF" stroke="#FFAF39" stroke-width="2.7902" stroke-linecap="round" stroke-linejoin="round" stroke-miterlimit="10" d="
											M66.8,292.6c0.9,0,14.6,12.4,14.6,12.4l15.6-13"/>
									</g>
								</g>
							</g>
							<g>
								<g>
									<path fill="#FFAF39" d="M99.8,114.4c0,3.1-2.5,5.6-5.6,5.6H70.5c-3.1,0-5.6-2.5-5.6-5.6V90.6c0-3.1,2.5-5.6,5.6-5.6h23.7
										c3.1,0,5.6,2.5,5.6,5.6V114.4z"/>
									<circle fill="#FFFFFF" cx="81.6" cy="102.3" r="13.3"/>
									<circle fill="#E94150" cx="81.6" cy="102.3" r="1.1"/>
									<g>
										<rect x="80.8" y="90" fill="#6A696E" width="2" height="5"/>
										
											<rect x="76.4" y="91.4" transform="matrix(0.8663 -0.4995 0.4995 0.8663 -36.524 50.9668)" fill="#6A696E" width="1" height="4.6"/>
										
											<rect x="72.8" y="94.9" transform="matrix(0.4997 -0.8662 0.8662 0.4997 -47.5187 112.1127)" fill="#6A696E" width="1" height="4.6"/>
										<rect x="67.8" y="102" fill="#6A696E" width="7" height="1"/>
										
											<rect x="72.5" y="104.6" transform="matrix(-0.4997 -0.8662 0.8662 -0.4997 16.8945 223.6201)" fill="#6A696E" width="1" height="4.6"/>
										
											<rect x="76" y="108.3" transform="matrix(-0.8662 -0.4997 0.4997 -0.8662 87.5073 244.6326)" fill="#6A696E" width="1" height="4.6"/>
										<rect x="80.8" y="109" fill="#6A696E" width="1" height="6"/>
										
											<rect x="85.7" y="108.5" transform="matrix(-0.8658 0.5004 -0.5004 -0.8658 216.3896 163.6618)" fill="#6A696E" width="1" height="4.6"/>
										
											<rect x="89.4" y="105.1" transform="matrix(-0.5001 0.866 -0.866 -0.5001 227.8721 83.2176)" fill="#6A696E" width="1" height="4.6"/>
										<rect x="87.8" y="102" fill="#6A696E" width="6" height="2"/>
										
											<rect x="89.7" y="95.3" transform="matrix(0.5007 0.8656 -0.8656 0.5007 129.5253 -29.304)" fill="#6A696E" width="1" height="4.6"/>
										
											<rect x="86.2" y="91.7" transform="matrix(0.8657 0.5005 -0.5005 0.8657 58.6721 -30.7746)" fill="#6A696E" width="1" height="4.6"/>
									</g>
									
										<rect x="84.8" y="95.3" transform="matrix(-0.4761 -0.8794 0.8794 -0.4761 38.2586 223.0781)" fill="#E94150" width="1.5" height="9.7"/>
									
										<rect x="77.7" y="95.3" transform="matrix(0.5269 -0.8499 0.8499 0.5269 -48.1649 113.9066)" fill="#E94150" width="1.1" height="9.7"/>
								</g>
								<g>
									<g>
										<defs>
											<path id="XMLID_4_" d="M99.8,207.8c0,3.1-3,5.2-6.1,5.2H70.3c-3.1,0-5.5-2.1-5.5-5.2v-23.4c0-3.1,2.4-5.4,5.5-5.4h23.4
												c3.1,0,6.1,2.3,6.1,5.4V207.8z"/>
										</defs>
										<use xlink:href="#XMLID_4_"  overflow="visible" fill="#1BB687"/>
										<clipPath id="XMLID_7_">
											<use xlink:href="#XMLID_4_"  overflow="visible"/>
										</clipPath>
										<polygon clip-path="url(#XMLID_7_)" fill="#FFFFFF" points="92.8,171 92.8,199.3 94.6,197.6 92.1,199.3 72.8,213.8 
											72.8,164 69.8,164 69.8,190 60.8,190 60.8,192 69.8,192 69.8,216.1 59,224.4 60.9,226.8 69.8,220 69.8,220 72.8,220 
											72.8,217.7 91.9,203.2 96.5,200 92.8,203.2 92.8,222 96.8,222 96.8,171 										"/>
									</g>
									<g>
										<path fill="#0A5382" d="M89.6,191.1c0.1,4.2-7.5,17.3-7.5,17.3s-7.8-12.9-7.9-17.2c-0.1-4.2,3.3-7.7,7.6-7.8
											C86,183.5,89.5,186.9,89.6,191.1z"/>
										<circle fill="#FFFFFF" cx="81.9" cy="191.2" r="4.2"/>
									</g>
								</g>
								<g>
									<g>
										<defs>
											<path id="XMLID_6_" d="M195.8,160.8c0,3.1-2.7,5.2-5.9,5.2h-23.4c-3.1,0-5.7-2.1-5.7-5.2v-23.4c0-3.1,2.6-5.4,5.7-5.4
												H190c3.1,0,5.9,2.3,5.9,5.4V160.8z"/>
										</defs>
										<use xlink:href="#XMLID_6_"  overflow="visible" fill="#1BB687"/>
										<clipPath id="XMLID_8_">
											<use xlink:href="#XMLID_6_"  overflow="visible"/>
										</clipPath>
									</g>
									<g>
										<path fill="#FFFFFF" d="M190,147.7c0,5.8-5.2,10.6-11.6,10.6c-3,0-5.6-1-7.7-2.6c-2.4-1.9-3.9-4.8-3.9-7.9
											c0-5.8,5.2-10.6,11.6-10.6C184.8,137.2,190,141.9,190,147.7z"/>
										<path fill="#FFFFFF" d="M172.4,152.2c0,0-2.4,7-5.7,7.6c-3.3,0.6,9.3,0.3,11.1-4.5"/>
									</g>
								</g>
								<g>
									<path fill="#C5C7C4" d="M147.8,114.3c0,3.1-2.5,5.7-5.7,5.7h-23.7c-3.1,0-5.7-2.5-5.7-5.7V90.7c0-3.1,2.5-5.7,5.7-5.7h23.7
										c3.1,0,5.7,2.5,5.7,5.7V114.3z"/>
									<path fill="#353537" d="M142.8,107.9c0,2.3-1.8,4.1-4.1,4.1h-15.8c-2.3,0-4.1-1.8-4.1-4.1V97.1c0-2.3,1.8-4.1,4.1-4.1h15.8
										c2.3,0,4.1,1.8,4.1,4.1V107.9z"/>
									<circle fill="#C3C3C5" cx="130.1" cy="102.2" r="5.1"/>
									<circle fill="#6A696E" cx="130.1" cy="102.2" r="3.5"/>
									<rect x="120.8" y="90" fill="#353537" width="4" height="5"/>
								</g>
								<g>
									<path fill="#E94150" d="M98.8,161.5c0,3-2.5,5.5-5.5,5.5h-23c-3,0-5.5-2.5-5.5-5.5v-23c0-3,2.5-5.5,5.5-5.5h23
										c3,0,5.5,2.5,5.5,5.5V161.5z"/>
									<path fill="#FFFFFF" d="M89.9,139.8l-13.1,0.1v12c-1-0.3-2.5,0-3.7,0.9c-1.9,1.4-2.3,3.9-1.1,5.4c1.2,1.5,3.7,1.6,5.6,0.2
										c1.4-1.1,1.7-2.4,1.8-3.9l0.2-12.5h7.2v10c-1-0.4-2.4-0.1-3.6,0.9c-1.9,1.4-2.2,3.9-1,5.4c1.2,1.5,3.8,1.6,5.6,0.2
										c1.1-0.8,1.5-2,1.7-3.1L89.9,139.8z"/>
								</g>
								<g>
									<path fill="#3DBDC4" d="M146.8,161.4c0,3.1-2.5,5.6-5.6,5.6h-22.8c-3.1,0-5.6-2.5-5.6-5.6v-22.8c0-3.1,2.5-5.6,5.6-5.6
										h22.8c3.1,0,5.6,2.5,5.6,5.6V161.4z"/>
									<g>
										<path fill="#FFBF61" d="M135.7,147.2c0,4.5-3.7,8.2-8.2,8.2c-4.5,0-8.2-3.7-8.2-8.2c0-4.5,3.7-8.2,8.2-8.2
											C132,139,135.7,142.7,135.7,147.2z"/>
										<path fill="#FFFFFF" d="M142.6,159.2c0.7-0.6,1.2-1.4,1.3-2.4c0.1-1.9-1.3-3.4-3.1-3.6c-0.3,0-0.6,0-0.9,0
											c0-0.3,0-0.7-0.1-1c-0.1-0.7-0.4-1.3-0.9-1.9c-0.7-0.8-1.7-1.3-2.7-1.3c-0.5,0-0.9,0-1.4,0.1c-0.1-1.9-1.7-3.8-3.7-3.8
											c-2.2,0-4.2,1.4-4.3,3.7c0,0.4,0,0.8,0.1,1.1c-0.3-0.1-0.5-0.1-0.8-0.1c-2.3,0-4.3,1.5-4.5,3.9c0,0.2,0,0.4,0,0.6
											c-0.6,0.2-1.2,0.4-1.7,0.7c-1.5,0.8-1.8,2.8-0.8,3.9H142.6z"/>
									</g>
								</g>
								<g>
									<path fill="#FFAF39" d="M146.8,208.4c0,3.1-2.5,5.6-5.6,5.6h-22.8c-3.1,0-5.6-2.5-5.6-5.6v-22.8c0-3.1,2.5-5.6,5.6-5.6
										h22.8c3.1,0,5.6,2.5,5.6,5.6V208.4z"/>
									<path fill="#6A696E" d="M132.8,208.1c0,1.1-0.9,1.9-1.9,1.9h-3.1c-1.1,0-1.9-0.9-1.9-1.9v-5.1c0-1.1,0.9-1.9,1.9-1.9h3.1
										c1.1,0,1.9,0.9,1.9,1.9V208.1z"/>
									<g>
										<defs>
											<path id="XMLID_5_" d="M139.1,193.1c0-5.3-4.3-9.5-9.5-9.5c-5.3,0-9.5,4.3-9.5,9.5c0,3.5,1.9,6.5,4.6,8.1
												c0,3,0.8,5.5,4.9,5.5c4.1,0,4.9-2.4,4.9-5.5C137.2,199.6,139.1,196.6,139.1,193.1z"/>
										</defs>
										<use xlink:href="#XMLID_5_"  overflow="visible" fill="#FFFFFF"/>
										<clipPath id="XMLID_9_">
											<use xlink:href="#XMLID_5_"  overflow="visible"/>
										</clipPath>
										<path clip-path="url(#XMLID_9_)" fill="#FFAF39" d="M132.4,191.9c-0.1-0.2-0.4-0.4-0.7-0.3c-1.1,0.3-1.8,0.9-2.3,1.7
											c-0.2-0.7-0.5-1.3-1-1.8c-0.2-0.3-0.7-0.3-0.9,0.1c-2.5,4.6-0.8,11.2,0.6,15.9c0.1,0.2,0.4,0.2,0.4,0
											c0.1-4.7-2.4-9.9-0.4-14.4c0.5,1,0.6,2.2,0.6,3.5c0,0.8,1.2,0.9,1.2,0.1c0-0.2,1.2-4.5,1.7-3.4c0.4,0.8,0.4,1.9,0.5,2.8
											c0,1.5-0.2,2.9-0.5,4.3c-0.4,2.5-1.4,5.1-1.3,7.7c0,0.8,1.2,1,1.3,0.1C132,202.9,134.8,196.8,132.4,191.9z"/>
									</g>
								</g>
								<g>
									<path fill="#E94150" d="M196.8,89.7c0-3.2-2.6-5.7-5.7-5.7h-24.5c-3.2,0-5.7,2.6-5.7,5.7v24.5c0,3.2,2.6,5.7,5.7,5.7h24.5
										c3.2,0,5.7-2.6,5.7-5.7V89.7z M189.8,90.8v0.5v19.8v1v0.9h-22v-0.9v-1V91.3v-0.5V89h22V90.8z"/>
									<path fill="#FFFFFF" d="M167.8,112h22V90h-22V112z M175.8,96l8.5,5.5l-8.5,5.5V96z"/>
									<polygon fill="#0A5382" points="167.8,90.8 167.8,90 189.8,90 189.8,90.8 189.8,89 167.8,89 									"/>
									<polygon fill="#0A5382" points="167.8,112.1 167.8,113 189.8,113 189.8,112.1 189.8,112 167.8,112 									"/>
									<polygon fill="#E94150" points="175.8,96 175.8,106.9 184.3,101.4 									"/>
								</g>
							</g>
						</g>
					</g>
					<g>
						<g>
							<path fill="#F6BFAB" d="M52.9,408.8c9.6,2.9,24.6-8.4,40.5-23.8H54.9C46.3,395.2,41.4,405.3,52.9,408.8z"/>
							<path fill="#F6BFAB" d="M10.1,211.8c5.6,7.6,15.8,9.8,25.7,9.8v-39.5C23.4,187.1,0.4,198.6,10.1,211.8z"/>
							<path fill="#F6BFAB" d="M5.7,292.8c8.3,6.1,20,4.2,30.1,0.5v-47.2C18.6,256.6-13,279.1,5.7,292.8z"/>
						</g>
						<g>
							<path fill="#F6BFAB" d="M261.9,191.6c-11.2-24.4-17.7-53.8-34.9-53.9l-1,142.5c0,0-36.5-88.8-38.4-99.8
								c-1.9-11-9.5-44.1-25.4-45.9c-15.9-1.7-21.5,26.9-16.2,46.1c10.2,36.9,19.7,58.2,21.4,86.6c1.5,26.1-23.7,45,6.1,118.1
								l-17.8-0.2c0,0-4.3,11.3,13.1,35.7c7.7,10.8,7.2,47.9,6.1,70.3l106.4,2.4c1.3-44.6,8.6-162.9,14.7-199.7
								C303.8,247.1,271.2,211.7,261.9,191.6z"/>
							<polygon fill="#CF6456" points="167.7,490.9 165,515.6 283.1,520 283,493.5 281.3,493.5 174.9,491.1 							"/>
							<polygon fill="#484544" points="159.7,515.4 147.1,623.8 290.2,630 289.8,520.2 283.1,520 165,515.6 							"/>
						</g>
					</g>
				</g>
			</g>
		</g>
	</g>
</g>
</svg>
