<?xml version="1.0" standalone="no"?>
<!DOCTYPE svg PUBLIC "-//W3C//DTD SVG 20010904//EN"
 "http://www.w3.org/TR/2001/REC-SVG-20010904/DTD/svg10.dtd">
<svg version="1.0" xmlns="http://www.w3.org/2000/svg"
 width="1931.000000pt" height="1931.000000pt" viewBox="0 0 1931.000000 1931.000000"
 preserveAspectRatio="xMidYMid meet">
<metadata>
Created by potrace 1.14, written by Peter Selinger 2001-2017
</metadata>
<g transform="translate(0.000000,1931.000000) scale(0.100000,-0.100000)"
fill="#000000" stroke="none">
<path d="M13087 17713 c-1 0 -65 -4 -142 -8 -196 -9 -251 -12 -320 -19 -33 -3
-88 -8 -122 -11 -34 -3 -70 -7 -80 -9 -10 -2 -45 -7 -78 -10 -33 -4 -71 -9
-85 -11 -14 -2 -43 -6 -65 -10 -23 -3 -50 -7 -60 -9 -11 -2 -42 -7 -70 -11
-52 -7 -91 -23 -81 -32 2 -3 0 -17 -5 -32 -9 -21 -34 -113 -53 -191 -2 -8 -27
-100 -56 -205 -28 -104 -53 -201 -56 -215 -3 -14 -11 -45 -19 -70 -12 -38 -47
-169 -167 -620 -11 -41 -21 -82 -23 -90 -2 -8 -13 -49 -25 -90 -11 -41 -23
-82 -25 -90 -2 -8 -55 -208 -118 -445 -140 -525 -132 -491 -115 -478 18 14
270 105 408 147 196 60 357 100 571 141 88 17 181 33 244 40 28 3 61 8 75 10
14 3 52 7 85 11 33 3 74 7 91 9 214 25 828 25 1022 0 16 -2 65 -7 107 -10 42
-4 85 -8 94 -10 10 -2 42 -6 72 -9 51 -6 116 -15 149 -21 8 -1 35 -6 60 -10
25 -4 54 -9 65 -11 11 -2 47 -9 80 -15 131 -23 419 -94 571 -139 494 -149 991
-383 1390 -655 128 -88 158 -109 164 -116 3 -3 43 -34 90 -69 207 -157 552
-484 710 -672 49 -60 69 -77 83 -72 10 3 85 49 167 102 82 54 206 133 275 177
69 44 178 114 243 156 332 215 1127 725 1136 728 25 10 32 25 20 40 -7 9 -52
66 -100 126 -71 90 -213 261 -259 311 -112 125 -204 222 -311 329 -249 249
-352 339 -714 628 -113 90 -501 357 -519 357 -5 0 -11 4 -13 8 -3 9 -240 151
-368 221 -292 160 -696 345 -955 438 -655 235 -1195 362 -1865 438 -98 11
-128 14 -215 20 -49 4 -106 9 -125 11 -103 10 -755 25 -763 17z"/>
<path d="M1877 17620 l-57 -5 22 -25 c13 -14 70 -83 127 -155 117 -145 630
-781 714 -885 7 -8 68 -85 137 -170 69 -85 127 -157 130 -160 3 -3 21 -25 40
-50 19 -25 42 -54 52 -65 64 -78 208 -256 229 -285 15 -19 39 -48 53 -65 15
-16 61 -74 104 -127 49 -63 84 -98 97 -99 11 0 598 -1 1305 -2 l1285 -2 0
-3615 c0 -1988 -4 -3680 -8 -3760 -10 -188 -22 -339 -32 -425 -2 -16 -7 -59
-11 -95 -3 -36 -8 -72 -9 -81 -2 -9 -6 -40 -10 -70 -5 -43 -42 -249 -71 -399
-6 -34 -47 -197 -73 -293 -118 -432 -332 -877 -580 -1202 -411 -540 -978 -934
-1746 -1215 -190 -70 -604 -192 -733 -216 -13 -3 -76 -16 -140 -30 -64 -14
-128 -28 -142 -30 -42 -8 -124 -23 -145 -27 -11 -3 -40 -8 -65 -12 -25 -4 -52
-9 -60 -10 -8 -2 -37 -6 -65 -9 -27 -4 -57 -9 -65 -11 -8 -2 -37 -6 -65 -10
-111 -14 -171 -23 -230 -34 -348 -68 -671 -211 -954 -424 -111 -83 -333 -300
-415 -404 -207 -265 -369 -604 -441 -923 -17 -76 -19 -88 -30 -170 -3 -25 -8
-51 -10 -58 -3 -7 -8 -74 -11 -149 l-6 -135 383 6 c211 4 422 9 469 11 47 2
153 6 235 10 83 3 173 8 200 10 28 1 100 6 160 9 61 4 126 9 145 11 19 2 76 7
125 10 50 3 101 8 115 10 14 2 65 7 114 10 49 4 97 8 108 10 10 2 49 7 86 10
37 3 78 7 92 9 14 2 54 6 90 10 36 4 92 11 125 16 33 5 87 12 120 16 33 3 62
7 65 9 3 2 28 6 55 9 28 4 64 8 80 10 17 2 57 9 90 15 33 6 78 13 100 16 22 3
51 7 65 10 14 3 41 8 60 11 30 5 435 86 495 99 32 7 68 15 90 19 11 2 76 18
145 36 69 18 133 34 143 36 36 8 55 14 177 49 69 20 177 52 240 73 63 20 117
36 120 37 3 0 19 6 35 12 17 7 93 34 170 61 120 43 197 72 290 111 11 5 49 21
85 36 238 101 502 234 725 367 142 84 139 82 145 89 3 3 12 9 20 12 33 16 189
124 335 233 168 125 324 261 500 438 216 217 321 339 487 566 69 95 258 384
258 394 0 2 20 38 45 80 66 112 204 398 280 581 58 140 194 525 215 610 4 17
18 66 30 110 12 44 24 88 26 98 4 16 11 47 18 72 1 6 5 19 9 30 3 11 8 31 11
45 3 14 16 75 29 135 14 61 30 137 36 170 6 33 13 71 16 85 3 14 8 41 11 60 3
19 7 46 10 60 2 14 7 41 10 60 3 19 9 60 14 90 9 52 15 100 25 180 2 19 7 53
9 75 29 227 28 226 40 385 4 52 9 106 11 120 2 14 7 86 11 160 4 74 9 160 11
190 2 30 6 2203 7 4828 l4 4772 -32 1 c-199 3 -6466 3 -6509 -1z"/>
<path d="M17390 5667 c-52 -60 -343 -352 -410 -412 -25 -22 -74 -65 -110 -95
-36 -30 -67 -57 -70 -61 -3 -3 -68 -53 -145 -111 -281 -212 -554 -381 -845
-524 -63 -31 -126 -62 -140 -69 -159 -83 -766 -298 -930 -330 -8 -2 -34 -8
-57 -14 -22 -6 -61 -15 -84 -20 -24 -5 -78 -16 -119 -25 -41 -9 -90 -19 -109
-22 -18 -3 -43 -8 -55 -10 -11 -2 -37 -7 -56 -10 -19 -3 -48 -8 -65 -10 -36
-7 -72 -11 -140 -19 -27 -3 -61 -8 -75 -10 -14 -3 -58 -7 -97 -10 -40 -3 -80
-8 -90 -9 -125 -24 -839 -24 -993 -1 -14 2 -54 6 -90 9 -36 4 -75 8 -87 10
-12 3 -48 7 -80 11 -32 3 -65 8 -73 10 -8 2 -31 7 -50 9 -19 3 -60 10 -90 16
-30 6 -68 13 -85 16 -27 5 -176 38 -215 48 -23 6 -103 26 -125 31 -66 16 -432
133 -450 145 -5 3 -30 13 -55 20 -25 7 -49 17 -55 20 -5 4 -32 15 -60 25 -27
10 -124 53 -215 95 -619 284 -1151 660 -1650 1163 l-145 146 -18 -62 c-10 -34
-20 -71 -22 -82 -18 -84 -192 -579 -250 -710 -7 -16 -27 -64 -45 -105 -18 -41
-39 -91 -48 -110 -9 -19 -16 -37 -17 -40 0 -3 -38 -80 -83 -171 -136 -275
-341 -620 -485 -819 -26 -35 -47 -67 -47 -71 0 -6 63 -63 180 -163 14 -11 66
-53 115 -92 783 -619 1666 -1075 2608 -1348 214 -62 502 -132 667 -162 166
-30 216 -39 285 -49 23 -3 50 -7 60 -9 11 -2 47 -7 80 -11 32 -4 66 -8 75 -10
8 -1 47 -6 85 -9 39 -4 81 -9 95 -11 111 -18 481 -37 755 -37 172 -1 476 9
565 17 19 1 78 6 130 10 52 3 106 8 120 10 14 2 50 7 80 10 68 7 167 19 240
30 79 11 118 17 145 22 17 2 39 6 50 8 19 2 161 28 230 41 16 3 61 12 100 20
38 9 79 17 90 20 11 2 29 6 40 8 54 11 418 107 426 112 5 3 17 7 26 9 115 22
675 227 881 321 41 19 75 34 77 34 11 0 332 159 457 226 464 250 962 595 1358
942 330 290 687 665 953 1001 l66 84 -47 31 c-26 17 -121 78 -212 135 -91 58
-174 112 -185 122 -11 9 -25 18 -30 20 -10 4 -114 69 -383 242 -78 51 -310
200 -515 331 -204 132 -395 254 -423 273 -28 18 -55 33 -60 33 -5 -1 -29 -24
-54 -53z"/>
</g>
</svg>
